<svg id="Layer_1" data-name="Layer 1" xmlns="http://www.w3.org/2000/svg" width="256" height="256" viewBox="0 0 256 256"><defs><style>.cls-1{fill:#fff;}</style></defs><rect class="cls-1" width="256" height="256" rx="40"/><path d="M93.39,180.06h0ZM83.88,93.21V81.47a4.28,4.28,0,0,0-4.28-4.28H24.23a3.93,3.93,0,0,0-3.92,3.92V91.78a3.93,3.93,0,0,0,3.92,3.93H61L19.66,161a3.92,3.92,0,0,0-.61,2.1v13A3.93,3.93,0,0,0,23,180.06h58a31.36,31.36,0,0,1-4-1.83c-5.51-3-11.43-7.29-14.34-13-.35-.69-.68-1.41-1-2.14v0a4,4,0,0,0-3.63-2.41h-16l14.56-23L83.22,95.5A4.32,4.32,0,0,0,83.88,93.21Z"/><path d="M173.43,78h9a4.28,4.28,0,0,1,4.11,3.1l18.62,65,12.45-64.59a4.28,4.28,0,0,1,4.2-3.47h10.88a4.28,4.28,0,0,1,4.17,5.24l-21.53,93.46a4.29,4.29,0,0,1-4.18,3.32H199.77a4.28,4.28,0,0,1-4.15-3.23l-17.28-68.06-18.1,68.11a4.29,4.29,0,0,1-4.14,3.18H144.7a4.27,4.27,0,0,1-4.17-3.32L119,83.28A4.29,4.29,0,0,1,123.17,78H134a4.28,4.28,0,0,1,4.2,3.47l12.45,64.59,18.62-65A4.3,4.3,0,0,1,173.43,78Z"/><path d="M131.89,149.36a4.19,4.19,0,0,1,0,2.11,47.86,47.86,0,0,1-5.38,12.42,34,34,0,0,1-12.5,12,35,35,0,0,1-17.14,4.14A49.92,49.92,0,0,1,86.29,179a36.39,36.39,0,0,1-9.41-3.41,29.7,29.7,0,0,1-12.62-13c-.36-.69-.69-1.41-1-2.14A46.86,46.86,0,0,1,59.91,142v-5.88l26.54-41.9V77h-.07a49.73,49.73,0,0,1,10.44-1A35.24,35.24,0,0,1,114,80.08a6.65,6.65,0,0,1,.58.33,4.31,4.31,0,0,1,2.06,2.76l5.24,22.74a4.28,4.28,0,0,1-4.17,5.24h-1a4.27,4.27,0,0,1-4.06-3,24.41,24.41,0,0,0-2.67-5.68,16.74,16.74,0,0,0-5.69-5.47,14.85,14.85,0,0,0-7.46-1.89,18,18,0,0,0-9.2,2.21,14.32,14.32,0,0,0-5.79,6.46,23.82,23.82,0,0,0-2,10.2v28a23.55,23.55,0,0,0,2,10.17,14.32,14.32,0,0,0,5.79,6.42,18,18,0,0,0,9.2,2.21,15.41,15.41,0,0,0,7.57-1.86,15.81,15.81,0,0,0,5.68-5.43,22.87,22.87,0,0,0,2.6-5.69,4.28,4.28,0,0,1,4.08-3h10.69a4.26,4.26,0,0,1,4.17,3.32Z"/></svg>